<?xml version="1.0" encoding="utf-8"?>
<!-- Generator: Adobe Illustrator 19.0.0, SVG Export Plug-In . SVG Version: 6.00 Build 0)  -->
<svg version="1.1" id="Layer_1" xmlns="http://www.w3.org/2000/svg" xmlns:xlink="http://www.w3.org/1999/xlink" x="0px" y="0px"
	 viewBox="0 0 256 256" style="enable-background:new 0 0 256 256;" xml:space="preserve">
<style type="text/css">
	.st0{fill:#99D69A;}
	.st1{fill:#2A3274;}
	.st2{fill:#FFFFFF;}
</style>
<g id="XMLID_922_">
	<g id="XMLID_928_">
		<g id="XMLID_929_">
			<g id="XMLID_930_">
				<path id="XMLID_939_" class="st0" d="M187.8,147.9c-4,0-7,1-10,1L148.9,120l23.9-23.9l30.9-11l22.9-36.8c1-2,1-5,0-6l-12-12
					c-2-2-5-2-7-1l-37.8,21.9l-12,31.9L134,107.1l-26.9-28.9c0-3,1-6,1-10c0-25.9-24.9-44.8-49.8-38.8l14.9,14.9c8,8,8,19.9,0,27.9
					s-19.9,8-27.9,0L29.4,58.3c-8,28.9,18.9,56.8,48.8,47.8l28.9,28.9l-12,12c-7-2-13.9,0-18.9,5l-40.8,40.8c-8,8-9,19.9-2,27.9
					c8,9,20.9,9,28.9,1l41.8-41.8c5-5,7-12.9,5-18.9l12-12l28.9,28.9c-1,3-1,7-1,10c0,25.9,24.9,44.8,49.8,38.8l-14.9-14.9
					c-8-8-8-19.9,0-27.9c8-8,19.9-8,27.9,0l14.9,14.9C233.6,172.8,213.6,147.9,187.8,147.9z"/>
				<path id="XMLID_931_" class="st1" d="M189.4,232.7c-1,0-2,0-3-0.1c-2.8-0.2-4.8-2.6-4.6-5.3c0.2-2.8,2.6-4.8,5.3-4.6
					c0.2,0,0.5,0,0.7,0l-7.5-7.5c-4.8-4.8-7.4-11-7.4-17.5s2.6-12.7,7.4-17.5c4.8-4.8,11-7.4,17.5-7.4s12.7,2.6,17.5,7.4l7.8,7.8
					c0-6.6-1.9-13-5.5-18.6c-1.5-2.3-0.8-5.4,1.5-6.9c2.3-1.5,5.4-0.8,6.9,1.5c4.6,7.3,7.1,15.6,7.1,24.2c0,4-0.5,7.9-1.6,11.8
					c-0.5,1.7-1.8,3.1-3.5,3.5c-1.7,0.5-3.6,0-4.8-1.3l-14.9-14.9c-2.9-2.9-6.6-4.5-10.4-4.5s-7.5,1.6-10.4,4.5
					c-2.9,2.9-4.5,6.6-4.5,10.4s1.6,7.5,4.5,10.4l14.9,14.9c1.3,1.3,1.8,3.2,1.3,4.9c-0.5,1.7-1.9,3.1-3.6,3.5
					C196.4,232.3,192.9,232.7,189.4,232.7z M48.3,232.5c-7.1,0-13.7-3-18.6-8.5c-3.8-4.4-5.9-10-5.9-15.8c0-7,2.9-13.7,8.1-19
					l40.8-40.8c3.4-3.4,7.5-5.7,12-6.7c2.7-0.6,5.4,1.1,6,3.8c0.6,2.7-1.1,5.4-3.8,6c-2.6,0.6-5.1,1.9-7.1,4l-40.8,40.8
					c-3.3,3.3-5.2,7.6-5.2,11.9c0,3.4,1.2,6.6,3.4,9.2c2.9,3.3,6.9,5.1,11.1,5.1c3.9,0,7.6-1.6,10.4-4.4l12.6-12.6c2-2,5.1-2,7.1,0
					c2,2,2,5.1,0,7.1l-12.6,12.6C61.1,229.9,54.9,232.5,48.3,232.5z M167.9,226.5c-0.9,0-1.8-0.2-2.6-0.8
					c-13.3-8.3-21.3-22.5-21.3-38c0-2.4,0-5.5,0.5-8.4L121,156l-6.4,6.4c0.2,1.1,0.3,2.2,0.3,3.4c0,6.5-2.7,13-7.2,17.5l-15.1,15.1
					c-2,2-5.1,2-7.1,0c-2-2-2-5.1,0-7.1l15.1-15.1c2.6-2.6,4.3-6.6,4.3-10.4c0-1.2-0.2-2.4-0.5-3.4c-0.6-1.8-0.1-3.8,1.2-5.1l12-12
					c2-2,5.1-2,7.1,0l28.9,28.9c1.3,1.3,1.8,3.3,1.2,5.1c-0.7,2.2-0.7,5.8-0.7,8.4c0,12,6.2,23,16.6,29.5c2.3,1.5,3.1,4.5,1.6,6.9
					C171.2,225.6,169.5,226.5,167.9,226.5z M207.3,158.1c-0.8,0-1.7-0.2-2.5-0.6c-5.2-2.9-11.1-4.5-17.1-4.5c-1.8,0-3.3,0.2-4.9,0.5
					c-1.6,0.2-3.3,0.5-5,0.5c-1.3,0-2.6-0.5-3.5-1.5l-28.9-28.9c-2-2-2-5.1,0-7.1l23.9-23.9c0.5-0.5,1.2-0.9,1.9-1.2l29.2-10.4
					l16.3-26.2c1.5-2.3,4.5-3.1,6.9-1.6c2.3,1.5,3.1,4.5,1.6,6.9l-17.2,27.7c-0.6,1-1.5,1.7-2.6,2.1l-29.8,10.6L156,120l23.7,23.7
					c0.5-0.1,1-0.1,1.6-0.2c1.8-0.3,3.9-0.6,6.5-0.6c7.7,0,15.3,2,22,5.8c2.4,1.4,3.3,4.4,1.9,6.8
					C210.8,157.2,209.1,158.1,207.3,158.1z M102.6,144.5c-1.3,0-2.6-0.5-3.5-1.5c-2-2-2-5.1,0-7.1l1-1l-23.3-23.3
					c-3.3,0.8-6.6,1.1-9.9,1.1C43.1,112.8,23,92.6,23,68.7c0-3.9,0.5-7.9,1.6-11.7c0.5-1.7,1.7-3,3.4-3.5c1.6-0.5,3.4-0.1,4.7,1
					l14.8,12.9c2.1,1.8,2.3,5,0.5,7.1c-1.8,2.1-5,2.3-7.1,0.5L33,68.1c0,0.2,0,0.4,0,0.6c0,18.5,15.5,34.1,33.8,34.1
					c3.3,0,6.7-0.5,10-1.5c1.8-0.5,3.7,0,5,1.3l28.9,28.9c0.9,0.9,1.5,2.2,1.5,3.5s-0.5,2.6-1.5,3.5l-4.5,4.5
					C105.2,144,103.9,144.5,102.6,144.5z M134,112.1C134,112.1,133.9,112.1,134,112.1c-1.4,0-2.7-0.6-3.7-1.6l-11.6-12.4
					c-1.9-2-1.8-5.2,0.3-7.1c2-1.9,5.2-1.8,7.1,0.3l8,8.6l19.5-19.5l11.6-30.9c0.4-1.1,1.2-2,2.2-2.6l37.8-21.9
					c0.1-0.1,0.2-0.1,0.3-0.1c1.5-0.8,3.3-1.2,5.1-1.2c2.9,0,5.7,1.1,7.7,3.1l9.9,9.9c2,2,2,5.1,0,7.1c-2,2-5.1,2-7.1,0l-9.9-9.9
					c-0.2-0.2-0.8-0.2-1.1-0.1l-36.1,20.9l-11.3,30.2c-0.3,0.7-0.6,1.3-1.1,1.8l-23.9,23.9C136.6,111.6,135.3,112.1,134,112.1z
					 M108.8,85c-1.3,0-2.7-0.5-3.7-1.6l-1.7-1.8c-0.9-0.9-1.3-2.1-1.3-3.4c0-1.8,0.3-3.4,0.5-5c0.3-1.6,0.5-3.2,0.5-4.9
					c0-18.7-15-34-33.8-34.9l7.5,7.5c4.8,4.8,7.4,11,7.4,17.5S81.6,71,76.8,75.8c-3.9,3.9-8.7,6.4-13.9,7.2
					c-2.7,0.4-5.3-1.4-5.7-4.2c-0.4-2.7,1.4-5.3,4.2-5.7c3.1-0.5,5.9-2,8.3-4.3c2.9-2.9,4.5-6.6,4.5-10.4s-1.6-7.5-4.5-10.4
					L54.8,32.9c-1.3-1.3-1.8-3.2-1.3-4.9s1.9-3.1,3.6-3.5c3.4-0.8,7-1.2,10.5-1.2c25.1,0,45.5,20.2,45.5,44.9c0,2.5-0.3,4.6-0.6,6.5
					c-0.1,0.6-0.2,1.2-0.2,1.7l0.2,0.2c1.9,2,1.8,5.2-0.3,7.1C111.2,84.6,110,85,108.8,85z"/>
			</g>
		</g>
	</g>
	<g id="XMLID_923_">
		<path id="XMLID_924_" class="st2" d="M160.2,158c-0.9,0-1.8-0.3-2.5-1l-9.2-9.2c-1.4-1.4-1.4-3.6,0-4.9c1.4-1.4,3.6-1.4,4.9,0
			l9.2,9.2c1.4,1.4,1.4,3.6,0,4.9C162,157.7,161.1,158,160.2,158z M143.9,141.8c-0.9,0-1.8-0.3-2.5-1l-12-12c-1.4-1.4-1.4-3.6,0-4.9
			c1.4-1.4,3.6-1.4,4.9,0l12,12c1.4,1.4,1.4,3.6,0,4.9C145.7,141.4,144.8,141.8,143.9,141.8z M124.8,122.7c-0.9,0-1.8-0.3-2.5-1
			l-12-12c-1.4-1.4-1.4-3.6,0-4.9c1.4-1.4,3.6-1.4,4.9,0l12,12c1.4,1.4,1.4,3.6,0,4.9C126.6,122.3,125.7,122.7,124.8,122.7z"/>
	</g>
</g>
</svg>
