<?xml version="1.0" encoding="utf-8"?>
<!-- Generator: Adobe Illustrator 19.0.0, SVG Export Plug-In . SVG Version: 6.00 Build 0)  -->
<svg version="1.1" id="Layer_1" xmlns="http://www.w3.org/2000/svg" xmlns:xlink="http://www.w3.org/1999/xlink" x="0px" y="0px"
	 viewBox="0 0 256 256" style="enable-background:new 0 0 256 256;" xml:space="preserve">
<style type="text/css">
	.st0{fill:#439EF9;}
	.st1{fill:#2A3274;}
	.st2{fill:#FFFFFF;}
</style>
<g id="XMLID_908_">
	<g id="XMLID_914_">
		<g id="XMLID_915_">
			<path id="XMLID_921_" class="st0" d="M228,143.6l-37.5-37.5V49.9h-25v31.3L128,43.6l-100,100v6.3h25v62.5h62.5v-37.5h25v37.5H203
				v-62.5h25V143.6z"/>
			<path id="XMLID_916_" class="st1" d="M184.3,217.4h-43.8c-2.8,0-5-2.2-5-5v-32.5h-15v32.5c0,2.8-2.2,5-5,5h-6.2c-2.8,0-5-2.2-5-5
				s2.2-5,5-5h1.2v-32.5c0-2.8,2.2-5,5-5h25c2.8,0,5,2.2,5,5v32.5h38.8c2.8,0,5,2.2,5,5S187,217.4,184.3,217.4z M89.3,217.4H53
				c-2.8,0-5-2.2-5-5v-57.5H28c-2.8,0-5-2.2-5-5v-6.3c0-1.3,0.5-2.6,1.5-3.5L38.6,126c2-2,5.1-2,7.1,0c2,2,2,5.1,0,7.1l-11.8,11.8
				H53c2.8,0,5,2.2,5,5v57.5h31.3c2.8,0,5,2.2,5,5S92,217.4,89.3,217.4z M203,216.1c-2.8,0-5-2.2-5-5v-61.2c0-2.8,2.2-5,5-5h19.2
				L187,109.7c-0.9-0.9-1.5-2.2-1.5-3.5V54.9h-15v10.7c0,2.8-2.2,5-5,5s-5-2.2-5-5V49.9c0-2.8,2.2-5,5-5h25c2.8,0,5,2.2,5,5v54.2
				l36,36c0.9,0.9,1.5,2.2,1.5,3.5v6.3c0,2.8-2.2,5-5,5h-20v56.2C208,213.9,205.8,216.1,203,216.1z M56.3,120.3
				c-1.3,0-2.6-0.5-3.5-1.5c-2-2-2-5.1,0-7.1l71.7-71.7c2-2,5.1-2,7.1,0l34.3,34.3c2,2,2,5.1,0,7.1c-2,2-5.1,2-7.1,0L128,50.7
				l-68.2,68.2C58.8,119.9,57.6,120.3,56.3,120.3z"/>
		</g>
	</g>
	<g id="XMLID_909_">
		<path id="XMLID_910_" class="st2" d="M78.8,131.1h-0.5c-1.4,0-2.7-0.9-3.2-2.2c-0.5-1.3-0.2-2.8,0.8-3.8l11.7-11.7
			c1.4-1.4,3.6-1.4,4.9,0c1.4,1.4,1.4,3.6,0,4.9l-10.3,10.3C81.7,130.1,80.4,131.1,78.8,131.1z M97.1,112.4c-0.9,0-1.8-0.3-2.5-1
			c-1.4-1.4-1.4-3.6,0-4.9l12-12c1.4-1.4,3.6-1.4,4.9,0c1.4,1.4,1.4,3.6,0,4.9l-12,12C98.8,112,98,112.4,97.1,112.4z M116.1,93.3
			c-0.9,0-1.8-0.3-2.5-1c-1.4-1.4-1.4-3.6,0-4.9l7.8-7.8c1.4-1.4,3.6-1.4,4.9,0c1.4,1.4,1.4,3.6,0,4.9l-7.8,7.8
			C117.9,92.9,117,93.3,116.1,93.3z"/>
	</g>
</g>
</svg>
